<?xml version="1.0" encoding="utf-8"?>
<!-- Generator: Adobe Illustrator 24.2.3, SVG Export Plug-In . SVG Version: 6.00 Build 0)  -->
<svg version="1.1" id="Layer_1" xmlns="http://www.w3.org/2000/svg" xmlns:xlink="http://www.w3.org/1999/xlink" x="0px" y="0px"
	 viewBox="0 0 500 500" style="enable-background:new 0 0 500 500;" xml:space="preserve">
<style type="text/css">
	.st0{fill:#FFFFFF;}
</style>
<path class="st0" d="M464.23,221.7l-32.84-35.98l17.74-37.02c1.36-2.84,0.17-6.24-2.67-7.6c-2.84-1.35-6.23-0.16-7.6,2.68
	l-18.25,38.08l-39.74,10.14h-53.4l9.64-63.77l32.1-25.22h55.39c3.15,0,5.69-2.55,5.69-5.69c0-3.15-2.55-5.69-5.69-5.69h-52.3
	L367,46.9c-0.37-3.14-3.22-5.44-6.33-4.98c-3.12,0.37-5.35,3.19-4.98,6.32l5.52,46.59l-27.93,21.95l-24.64-39.42l17.51-44.57
	c1.15-2.92-0.29-6.23-3.22-7.38c-2.91-1.13-6.23,0.29-7.38,3.22l-17.14,43.62h-29.44c-3.15,0-5.69,2.55-5.69,5.69
	c0,3.15,2.55,5.69,5.69,5.69h30.17l26.73,42.76l-10.24,67.81L250,233.25l-65.63-39.06l-10.25-67.81l26.73-42.76h30.17
	c3.15,0,5.69-2.55,5.69-5.69c0-3.15-2.55-5.69-5.69-5.69h-29.44l-17.13-43.62c-1.15-2.94-4.45-4.36-7.38-3.22
	c-2.93,1.16-4.37,4.46-3.22,7.38l17.5,44.57l-24.64,39.42l-27.93-21.95l5.53-46.59c0.37-3.11-1.86-5.95-4.98-6.32
	c-3.11-0.43-5.95,1.85-6.33,4.98l-5.31,44.74H75.4c-3.15,0-5.69,2.55-5.69,5.69c0,3.15,2.55,5.69,5.69,5.69h55.39l32.1,25.22
	l9.65,63.77h-53.41l-39.74-10.14L61.13,143.8c-1.36-2.84-4.75-4.04-7.6-2.68c-2.84,1.36-4.03,4.76-2.67,7.6l17.74,37.02L35.77,221.7
	c-2.12,2.32-1.96,5.92,0.37,8.04c1.09,1,2.46,1.49,3.84,1.49c1.54,0,3.08-0.62,4.2-1.86l33.13-36.29l33.44,8.53L98.1,233.56
	l-48.85,15.22c-3,0.93-4.68,4.13-3.74,7.13c0.94,3.01,4.1,4.69,7.13,3.75l46.98-14.64l23.92,43.98c1.03,1.89,2.99,2.97,5.01,2.97
	c0.92,0,1.85-0.22,2.71-0.69c2.76-1.5,3.79-4.96,2.29-7.73l-24.88-45.74l13.62-34.4h55.3l66.73,39.71v226.2
	c0,3.15,2.55,5.69,5.69,5.69s5.69-2.55,5.69-5.69v-226.2l66.73-39.71h55.29l13.62,34.4l-24.88,45.74c-1.5,2.77-0.48,6.23,2.29,7.73
	c0.86,0.47,1.8,0.69,2.71,0.69c2.02,0,3.98-1.08,5.01-2.97l23.92-43.98l46.99,14.64c3.02,0.95,6.19-0.73,7.13-3.75
	c0.93-3-0.74-6.19-3.74-7.13l-48.86-15.22l-12.65-31.94l33.44-8.53l33.13,36.29c1.12,1.23,2.66,1.86,4.2,1.86
	c1.37,0,2.75-0.49,3.84-1.49C466.19,227.62,466.36,224.03,464.23,221.7z"/>
</svg>
